<?xml version="1.0" encoding="utf-8" standalone="no"?>
<!DOCTYPE svg PUBLIC "-//W3C//DTD SVG 1.1//EN"
  "http://www.w3.org/Graphics/SVG/1.1/DTD/svg11.dtd">
<svg xmlns:xlink="http://www.w3.org/1999/xlink" width="1019.27952pt" height="371.261397pt" viewBox="0 0 1019.27952 371.261397" xmlns="http://www.w3.org/2000/svg" version="1.1">
 <metadata>
  <rdf:RDF xmlns:dc="http://purl.org/dc/elements/1.1/" xmlns:cc="http://creativecommons.org/ns#" xmlns:rdf="http://www.w3.org/1999/02/22-rdf-syntax-ns#">
   <cc:Work>
    <dc:type rdf:resource="http://purl.org/dc/dcmitype/StillImage"/>
    <dc:date>2026-09-22T18:22:11.357077</dc:date>
    <dc:format>image/svg+xml</dc:format>
    <dc:creator>
     <cc:Agent>
      <dc:title>Matplotlib v3.7.2, https://matplotlib.org/</dc:title>
     </cc:Agent>
    </dc:creator>
   </cc:Work>
  </rdf:RDF>
 </metadata>
 <defs>
  <style type="text/css">*{stroke-linejoin: round; stroke-linecap: butt}</style>
 </defs>
 <g id="figure_1">
  <g id="patch_1">
   <path d="M 0 371.261397 
L 1019.27952 371.261397 
L 1019.27952 0 
L 0 0 
z
" style="fill: #ffffff"/>
  </g>
  <g id="axes_1">
   <g id="patch_2">
    <path d="M 47.779375 277.558171 
L 504.59976 277.558171 
L 504.59976 43.728168 
L 47.779375 43.728168 
z
" style="fill: #ffffff"/>
   </g>
   <g id="matplotlib.axis_1">
    <g id="xtick_1">
     <g id="line2d_1">
      <path d="M 47.779375 277.558171 
L 47.779375 43.728168 
" clip-path="url(#p4a8349e14d)" style="fill: none; stroke: #b0b0b0; stroke-opacity: 0.18; stroke-width: 0.8; stroke-linecap: square"/>
     </g>
     <g id="line2d_2">
      <defs>
       <path id="m480ec8ce82" d="M 0 0 
L 0 3.5 
" style="stroke: #000000; stroke-width: 0.8"/>
      </defs>
      <g>
       <use xlink:href="#m480ec8ce82" x="47.779375" y="277.558171" style="stroke: #000000; stroke-width: 0.8"/>
      </g>
     </g>
     <g id="text_1">
      <!-- 0 -->
      <g transform="translate(44.28 292.916452) scale(0.11 -0.11)">
       <defs>
        <path id="DejaVuSans-30" d="M 2034 4250 
Q 1547 4250 1301 3770 
Q 1056 3291 1056 2328 
Q 1056 1369 1301 889 
Q 1547 409 2034 409 
Q 2525 409 2770 889 
Q 3016 1369 3016 2328 
Q 3016 3291 2770 3770 
Q 2525 4250 2034 4250 
z
M 2034 4750 
Q 2819 4750 3233 4129 
Q 3647 3509 3647 2328 
Q 3647 1150 3233 529 
Q 2819 -91 2034 -91 
Q 1250 -91 836 529 
Q 422 1150 422 2328 
Q 422 3509 836 4129 
Q 1250 4750 2034 4750 
z
" transform="scale(0.015625)"/>
       </defs>
       <use xlink:href="#DejaVuSans-30"/>
      </g>
     </g>
    </g>
    <g id="xtick_2">
     <g id="line2d_3">
      <path d="M 147.304513 277.558171 
L 147.304513 43.728168 
" clip-path="url(#p4a8349e14d)" style="fill: none; stroke: #b0b0b0; stroke-opacity: 0.18; stroke-width: 0.8; stroke-linecap: square"/>
     </g>
     <g id="line2d_4">
      <g>
       <use xlink:href="#m480ec8ce82" x="147.304513" y="277.558171" style="stroke: #000000; stroke-width: 0.8"/>
      </g>
     </g>
     <g id="text_2">
      <!-- 100 -->
      <g transform="translate(136.806388 292.916452) scale(0.11 -0.11)">
       <defs>
        <path id="DejaVuSans-31" d="M 794 531 
L 1825 531 
L 1825 4091 
L 703 3866 
L 703 4441 
L 1819 4666 
L 2450 4666 
L 2450 531 
L 3481 531 
L 3481 0 
L 794 0 
L 794 531 
z
" transform="scale(0.015625)"/>
       </defs>
       <use xlink:href="#DejaVuSans-31"/>
       <use xlink:href="#DejaVuSans-30" x="63.623047"/>
       <use xlink:href="#DejaVuSans-30" x="127.246094"/>
      </g>
     </g>
    </g>
    <g id="xtick_3">
     <g id="line2d_5">
      <path d="M 246.829652 277.558171 
L 246.829652 43.728168 
" clip-path="url(#p4a8349e14d)" style="fill: none; stroke: #b0b0b0; stroke-opacity: 0.18; stroke-width: 0.8; stroke-linecap: square"/>
     </g>
     <g id="line2d_6">
      <g>
       <use xlink:href="#m480ec8ce82" x="246.829652" y="277.558171" style="stroke: #000000; stroke-width: 0.8"/>
      </g>
     </g>
     <g id="text_3">
      <!-- 200 -->
      <g transform="translate(236.331527 292.916452) scale(0.11 -0.11)">
       <defs>
        <path id="DejaVuSans-32" d="M 1228 531 
L 3431 531 
L 3431 0 
L 469 0 
L 469 531 
Q 828 903 1448 1529 
Q 2069 2156 2228 2338 
Q 2531 2678 2651 2914 
Q 2772 3150 2772 3378 
Q 2772 3750 2511 3984 
Q 2250 4219 1831 4219 
Q 1534 4219 1204 4116 
Q 875 4013 500 3803 
L 500 4441 
Q 881 4594 1212 4672 
Q 1544 4750 1819 4750 
Q 2544 4750 2975 4387 
Q 3406 4025 3406 3419 
Q 3406 3131 3298 2873 
Q 3191 2616 2906 2266 
Q 2828 2175 2409 1742 
Q 1991 1309 1228 531 
z
" transform="scale(0.015625)"/>
       </defs>
       <use xlink:href="#DejaVuSans-32"/>
       <use xlink:href="#DejaVuSans-30" x="63.623047"/>
       <use xlink:href="#DejaVuSans-30" x="127.246094"/>
      </g>
     </g>
    </g>
    <g id="xtick_4">
     <g id="line2d_7">
      <path d="M 346.35479 277.558171 
L 346.35479 43.728168 
" clip-path="url(#p4a8349e14d)" style="fill: none; stroke: #b0b0b0; stroke-opacity: 0.18; stroke-width: 0.8; stroke-linecap: square"/>
     </g>
     <g id="line2d_8">
      <g>
       <use xlink:href="#m480ec8ce82" x="346.35479" y="277.558171" style="stroke: #000000; stroke-width: 0.8"/>
      </g>
     </g>
     <g id="text_4">
      <!-- 300 -->
      <g transform="translate(335.856665 292.916452) scale(0.11 -0.11)">
       <defs>
        <path id="DejaVuSans-33" d="M 2597 2516 
Q 3050 2419 3304 2112 
Q 3559 1806 3559 1356 
Q 3559 666 3084 287 
Q 2609 -91 1734 -91 
Q 1441 -91 1130 -33 
Q 819 25 488 141 
L 488 750 
Q 750 597 1062 519 
Q 1375 441 1716 441 
Q 2309 441 2620 675 
Q 2931 909 2931 1356 
Q 2931 1769 2642 2001 
Q 2353 2234 1838 2234 
L 1294 2234 
L 1294 2753 
L 1863 2753 
Q 2328 2753 2575 2939 
Q 2822 3125 2822 3475 
Q 2822 3834 2567 4026 
Q 2313 4219 1838 4219 
Q 1578 4219 1281 4162 
Q 984 4106 628 3988 
L 628 4550 
Q 988 4650 1302 4700 
Q 1616 4750 1894 4750 
Q 2613 4750 3031 4423 
Q 3450 4097 3450 3541 
Q 3450 3153 3228 2886 
Q 3006 2619 2597 2516 
z
" transform="scale(0.015625)"/>
       </defs>
       <use xlink:href="#DejaVuSans-33"/>
       <use xlink:href="#DejaVuSans-30" x="63.623047"/>
       <use xlink:href="#DejaVuSans-30" x="127.246094"/>
      </g>
     </g>
    </g>
    <g id="xtick_5">
     <g id="line2d_9">
      <path d="M 445.879928 277.558171 
L 445.879928 43.728168 
" clip-path="url(#p4a8349e14d)" style="fill: none; stroke: #b0b0b0; stroke-opacity: 0.18; stroke-width: 0.8; stroke-linecap: square"/>
     </g>
     <g id="line2d_10">
      <g>
       <use xlink:href="#m480ec8ce82" x="445.879928" y="277.558171" style="stroke: #000000; stroke-width: 0.8"/>
      </g>
     </g>
     <g id="text_5">
      <!-- 400 -->
      <g transform="translate(435.381803 292.916452) scale(0.11 -0.11)">
       <defs>
        <path id="DejaVuSans-34" d="M 2419 4116 
L 825 1625 
L 2419 1625 
L 2419 4116 
z
M 2253 4666 
L 3047 4666 
L 3047 1625 
L 3713 1625 
L 3713 1100 
L 3047 1100 
L 3047 0 
L 2419 0 
L 2419 1100 
L 313 1100 
L 313 1709 
L 2253 4666 
z
" transform="scale(0.015625)"/>
       </defs>
       <use xlink:href="#DejaVuSans-34"/>
       <use xlink:href="#DejaVuSans-30" x="63.623047"/>
       <use xlink:href="#DejaVuSans-30" x="127.246094"/>
      </g>
     </g>
    </g>
    <g id="text_6">
     <!-- Time (ns) -->
     <g transform="translate(250.342146 307.56239) scale(0.11 -0.11)">
      <defs>
       <path id="DejaVuSans-54" d="M -19 4666 
L 3928 4666 
L 3928 4134 
L 2272 4134 
L 2272 0 
L 1638 0 
L 1638 4134 
L -19 4134 
L -19 4666 
z
" transform="scale(0.015625)"/>
       <path id="DejaVuSans-69" d="M 603 3500 
L 1178 3500 
L 1178 0 
L 603 0 
L 603 3500 
z
M 603 4863 
L 1178 4863 
L 1178 4134 
L 603 4134 
L 603 4863 
z
" transform="scale(0.015625)"/>
       <path id="DejaVuSans-6d" d="M 3328 2828 
Q 3544 3216 3844 3400 
Q 4144 3584 4550 3584 
Q 5097 3584 5394 3201 
Q 5691 2819 5691 2113 
L 5691 0 
L 5113 0 
L 5113 2094 
Q 5113 2597 4934 2840 
Q 4756 3084 4391 3084 
Q 3944 3084 3684 2787 
Q 3425 2491 3425 1978 
L 3425 0 
L 2847 0 
L 2847 2094 
Q 2847 2600 2669 2842 
Q 2491 3084 2119 3084 
Q 1678 3084 1418 2786 
Q 1159 2488 1159 1978 
L 1159 0 
L 581 0 
L 581 3500 
L 1159 3500 
L 1159 2956 
Q 1356 3278 1631 3431 
Q 1906 3584 2284 3584 
Q 2666 3584 2933 3390 
Q 3200 3197 3328 2828 
z
" transform="scale(0.015625)"/>
       <path id="DejaVuSans-65" d="M 3597 1894 
L 3597 1613 
L 953 1613 
Q 991 1019 1311 708 
Q 1631 397 2203 397 
Q 2534 397 2845 478 
Q 3156 559 3463 722 
L 3463 178 
Q 3153 47 2828 -22 
Q 2503 -91 2169 -91 
Q 1331 -91 842 396 
Q 353 884 353 1716 
Q 353 2575 817 3079 
Q 1281 3584 2069 3584 
Q 2775 3584 3186 3129 
Q 3597 2675 3597 1894 
z
M 3022 2063 
Q 3016 2534 2758 2815 
Q 2500 3097 2075 3097 
Q 1594 3097 1305 2825 
Q 1016 2553 972 2059 
L 3022 2063 
z
" transform="scale(0.015625)"/>
       <path id="DejaVuSans-20" transform="scale(0.015625)"/>
       <path id="DejaVuSans-28" d="M 1984 4856 
Q 1566 4138 1362 3434 
Q 1159 2731 1159 2009 
Q 1159 1288 1364 580 
Q 1569 -128 1984 -844 
L 1484 -844 
Q 1016 -109 783 600 
Q 550 1309 550 2009 
Q 550 2706 781 3412 
Q 1013 4119 1484 4856 
L 1984 4856 
z
" transform="scale(0.015625)"/>
       <path id="DejaVuSans-6e" d="M 3513 2113 
L 3513 0 
L 2938 0 
L 2938 2094 
Q 2938 2591 2744 2837 
Q 2550 3084 2163 3084 
Q 1697 3084 1428 2787 
Q 1159 2491 1159 1978 
L 1159 0 
L 581 0 
L 581 3500 
L 1159 3500 
L 1159 2956 
Q 1366 3272 1645 3428 
Q 1925 3584 2291 3584 
Q 2894 3584 3203 3211 
Q 3513 2838 3513 2113 
z
" transform="scale(0.015625)"/>
       <path id="DejaVuSans-73" d="M 2834 3397 
L 2834 2853 
Q 2591 2978 2328 3040 
Q 2066 3103 1784 3103 
Q 1356 3103 1142 2972 
Q 928 2841 928 2578 
Q 928 2378 1081 2264 
Q 1234 2150 1697 2047 
L 1894 2003 
Q 2506 1872 2764 1633 
Q 3022 1394 3022 966 
Q 3022 478 2636 193 
Q 2250 -91 1575 -91 
Q 1294 -91 989 -36 
Q 684 19 347 128 
L 347 722 
Q 666 556 975 473 
Q 1284 391 1588 391 
Q 1994 391 2212 530 
Q 2431 669 2431 922 
Q 2431 1156 2273 1281 
Q 2116 1406 1581 1522 
L 1381 1569 
Q 847 1681 609 1914 
Q 372 2147 372 2553 
Q 372 3047 722 3315 
Q 1072 3584 1716 3584 
Q 2034 3584 2315 3537 
Q 2597 3491 2834 3397 
z
" transform="scale(0.015625)"/>
       <path id="DejaVuSans-29" d="M 513 4856 
L 1013 4856 
Q 1481 4119 1714 3412 
Q 1947 2706 1947 2009 
Q 1947 1309 1714 600 
Q 1481 -109 1013 -844 
L 513 -844 
Q 928 -128 1133 580 
Q 1338 1288 1338 2009 
Q 1338 2731 1133 3434 
Q 928 4138 513 4856 
z
" transform="scale(0.015625)"/>
      </defs>
      <use xlink:href="#DejaVuSans-54"/>
      <use xlink:href="#DejaVuSans-69" x="57.958984"/>
      <use xlink:href="#DejaVuSans-6d" x="85.742188"/>
      <use xlink:href="#DejaVuSans-65" x="183.154297"/>
      <use xlink:href="#DejaVuSans-20" x="244.677734"/>
      <use xlink:href="#DejaVuSans-28" x="276.464844"/>
      <use xlink:href="#DejaVuSans-6e" x="315.478516"/>
      <use xlink:href="#DejaVuSans-73" x="378.857422"/>
      <use xlink:href="#DejaVuSans-29" x="430.957031"/>
     </g>
    </g>
   </g>
   <g id="matplotlib.axis_2">
    <g id="ytick_1">
     <g id="line2d_11">
      <path d="M 47.779375 266.929535 
L 504.59976 266.929535 
" clip-path="url(#p4a8349e14d)" style="fill: none; stroke: #b0b0b0; stroke-opacity: 0.18; stroke-width: 0.8; stroke-linecap: square"/>
     </g>
     <g id="line2d_12">
      <defs>
       <path id="mb3074820a2" d="M 0 0 
L -3.5 0 
" style="stroke: #000000; stroke-width: 0.8"/>
      </defs>
      <g>
       <use xlink:href="#mb3074820a2" x="47.779375" y="266.929535" style="stroke: #000000; stroke-width: 0.8"/>
      </g>
     </g>
     <g id="text_7">
      <!-- 0.0 -->
      <g transform="translate(23.285938 271.108675) scale(0.11 -0.11)">
       <defs>
        <path id="DejaVuSans-2e" d="M 684 794 
L 1344 794 
L 1344 0 
L 684 0 
L 684 794 
z
" transform="scale(0.015625)"/>
       </defs>
       <use xlink:href="#DejaVuSans-30"/>
       <use xlink:href="#DejaVuSans-2e" x="63.623047"/>
       <use xlink:href="#DejaVuSans-30" x="95.410156"/>
      </g>
     </g>
    </g>
    <g id="ytick_2">
     <g id="line2d_13">
      <path d="M 47.779375 224.407806 
L 504.59976 224.407806 
" clip-path="url(#p4a8349e14d)" style="fill: none; stroke: #b0b0b0; stroke-opacity: 0.18; stroke-width: 0.8; stroke-linecap: square"/>
     </g>
     <g id="line2d_14">
      <g>
       <use xlink:href="#mb3074820a2" x="47.779375" y="224.407806" style="stroke: #000000; stroke-width: 0.8"/>
      </g>
     </g>
     <g id="text_8">
      <!-- 0.2 -->
      <g transform="translate(23.285938 228.586947) scale(0.11 -0.11)">
       <use xlink:href="#DejaVuSans-30"/>
       <use xlink:href="#DejaVuSans-2e" x="63.623047"/>
       <use xlink:href="#DejaVuSans-32" x="95.410156"/>
      </g>
     </g>
    </g>
    <g id="ytick_3">
     <g id="line2d_15">
      <path d="M 47.779375 181.886078 
L 504.59976 181.886078 
" clip-path="url(#p4a8349e14d)" style="fill: none; stroke: #b0b0b0; stroke-opacity: 0.18; stroke-width: 0.8; stroke-linecap: square"/>
     </g>
     <g id="line2d_16">
      <g>
       <use xlink:href="#mb3074820a2" x="47.779375" y="181.886078" style="stroke: #000000; stroke-width: 0.8"/>
      </g>
     </g>
     <g id="text_9">
      <!-- 0.4 -->
      <g transform="translate(23.285938 186.065219) scale(0.11 -0.11)">
       <use xlink:href="#DejaVuSans-30"/>
       <use xlink:href="#DejaVuSans-2e" x="63.623047"/>
       <use xlink:href="#DejaVuSans-34" x="95.410156"/>
      </g>
     </g>
    </g>
    <g id="ytick_4">
     <g id="line2d_17">
      <path d="M 47.779375 139.36435 
L 504.59976 139.36435 
" clip-path="url(#p4a8349e14d)" style="fill: none; stroke: #b0b0b0; stroke-opacity: 0.18; stroke-width: 0.8; stroke-linecap: square"/>
     </g>
     <g id="line2d_18">
      <g>
       <use xlink:href="#mb3074820a2" x="47.779375" y="139.36435" style="stroke: #000000; stroke-width: 0.8"/>
      </g>
     </g>
     <g id="text_10">
      <!-- 0.6 -->
      <g transform="translate(23.285938 143.54349) scale(0.11 -0.11)">
       <defs>
        <path id="DejaVuSans-36" d="M 2113 2584 
Q 1688 2584 1439 2293 
Q 1191 2003 1191 1497 
Q 1191 994 1439 701 
Q 1688 409 2113 409 
Q 2538 409 2786 701 
Q 3034 994 3034 1497 
Q 3034 2003 2786 2293 
Q 2538 2584 2113 2584 
z
M 3366 4563 
L 3366 3988 
Q 3128 4100 2886 4159 
Q 2644 4219 2406 4219 
Q 1781 4219 1451 3797 
Q 1122 3375 1075 2522 
Q 1259 2794 1537 2939 
Q 1816 3084 2150 3084 
Q 2853 3084 3261 2657 
Q 3669 2231 3669 1497 
Q 3669 778 3244 343 
Q 2819 -91 2113 -91 
Q 1303 -91 875 529 
Q 447 1150 447 2328 
Q 447 3434 972 4092 
Q 1497 4750 2381 4750 
Q 2619 4750 2861 4703 
Q 3103 4656 3366 4563 
z
" transform="scale(0.015625)"/>
       </defs>
       <use xlink:href="#DejaVuSans-30"/>
       <use xlink:href="#DejaVuSans-2e" x="63.623047"/>
       <use xlink:href="#DejaVuSans-36" x="95.410156"/>
      </g>
     </g>
    </g>
    <g id="ytick_5">
     <g id="line2d_19">
      <path d="M 47.779375 96.842621 
L 504.59976 96.842621 
" clip-path="url(#p4a8349e14d)" style="fill: none; stroke: #b0b0b0; stroke-opacity: 0.18; stroke-width: 0.8; stroke-linecap: square"/>
     </g>
     <g id="line2d_20">
      <g>
       <use xlink:href="#mb3074820a2" x="47.779375" y="96.842621" style="stroke: #000000; stroke-width: 0.8"/>
      </g>
     </g>
     <g id="text_11">
      <!-- 0.8 -->
      <g transform="translate(23.285938 101.021762) scale(0.11 -0.11)">
       <defs>
        <path id="DejaVuSans-38" d="M 2034 2216 
Q 1584 2216 1326 1975 
Q 1069 1734 1069 1313 
Q 1069 891 1326 650 
Q 1584 409 2034 409 
Q 2484 409 2743 651 
Q 3003 894 3003 1313 
Q 3003 1734 2745 1975 
Q 2488 2216 2034 2216 
z
M 1403 2484 
Q 997 2584 770 2862 
Q 544 3141 544 3541 
Q 544 4100 942 4425 
Q 1341 4750 2034 4750 
Q 2731 4750 3128 4425 
Q 3525 4100 3525 3541 
Q 3525 3141 3298 2862 
Q 3072 2584 2669 2484 
Q 3125 2378 3379 2068 
Q 3634 1759 3634 1313 
Q 3634 634 3220 271 
Q 2806 -91 2034 -91 
Q 1263 -91 848 271 
Q 434 634 434 1313 
Q 434 1759 690 2068 
Q 947 2378 1403 2484 
z
M 1172 3481 
Q 1172 3119 1398 2916 
Q 1625 2713 2034 2713 
Q 2441 2713 2670 2916 
Q 2900 3119 2900 3481 
Q 2900 3844 2670 4047 
Q 2441 4250 2034 4250 
Q 1625 4250 1398 4047 
Q 1172 3844 1172 3481 
z
" transform="scale(0.015625)"/>
       </defs>
       <use xlink:href="#DejaVuSans-30"/>
       <use xlink:href="#DejaVuSans-2e" x="63.623047"/>
       <use xlink:href="#DejaVuSans-38" x="95.410156"/>
      </g>
     </g>
    </g>
    <g id="ytick_6">
     <g id="line2d_21">
      <path d="M 47.779375 54.320893 
L 504.59976 54.320893 
" clip-path="url(#p4a8349e14d)" style="fill: none; stroke: #b0b0b0; stroke-opacity: 0.18; stroke-width: 0.8; stroke-linecap: square"/>
     </g>
     <g id="line2d_22">
      <g>
       <use xlink:href="#mb3074820a2" x="47.779375" y="54.320893" style="stroke: #000000; stroke-width: 0.8"/>
      </g>
     </g>
     <g id="text_12">
      <!-- 1.0 -->
      <g transform="translate(23.285938 58.500034) scale(0.11 -0.11)">
       <use xlink:href="#DejaVuSans-31"/>
       <use xlink:href="#DejaVuSans-2e" x="63.623047"/>
       <use xlink:href="#DejaVuSans-30" x="95.410156"/>
      </g>
     </g>
    </g>
    <g id="text_13">
     <!-- Readout induced charge fraction -->
     <g transform="translate(16.998281 250.653247) rotate(-90) scale(0.11 -0.11)">
      <defs>
       <path id="DejaVuSans-52" d="M 2841 2188 
Q 3044 2119 3236 1894 
Q 3428 1669 3622 1275 
L 4263 0 
L 3584 0 
L 2988 1197 
Q 2756 1666 2539 1819 
Q 2322 1972 1947 1972 
L 1259 1972 
L 1259 0 
L 628 0 
L 628 4666 
L 2053 4666 
Q 2853 4666 3247 4331 
Q 3641 3997 3641 3322 
Q 3641 2881 3436 2590 
Q 3231 2300 2841 2188 
z
M 1259 4147 
L 1259 2491 
L 2053 2491 
Q 2509 2491 2742 2702 
Q 2975 2913 2975 3322 
Q 2975 3731 2742 3939 
Q 2509 4147 2053 4147 
L 1259 4147 
z
" transform="scale(0.015625)"/>
       <path id="DejaVuSans-61" d="M 2194 1759 
Q 1497 1759 1228 1600 
Q 959 1441 959 1056 
Q 959 750 1161 570 
Q 1363 391 1709 391 
Q 2188 391 2477 730 
Q 2766 1069 2766 1631 
L 2766 1759 
L 2194 1759 
z
M 3341 1997 
L 3341 0 
L 2766 0 
L 2766 531 
Q 2569 213 2275 61 
Q 1981 -91 1556 -91 
Q 1019 -91 701 211 
Q 384 513 384 1019 
Q 384 1609 779 1909 
Q 1175 2209 1959 2209 
L 2766 2209 
L 2766 2266 
Q 2766 2663 2505 2880 
Q 2244 3097 1772 3097 
Q 1472 3097 1187 3025 
Q 903 2953 641 2809 
L 641 3341 
Q 956 3463 1253 3523 
Q 1550 3584 1831 3584 
Q 2591 3584 2966 3190 
Q 3341 2797 3341 1997 
z
" transform="scale(0.015625)"/>
       <path id="DejaVuSans-64" d="M 2906 2969 
L 2906 4863 
L 3481 4863 
L 3481 0 
L 2906 0 
L 2906 525 
Q 2725 213 2448 61 
Q 2172 -91 1784 -91 
Q 1150 -91 751 415 
Q 353 922 353 1747 
Q 353 2572 751 3078 
Q 1150 3584 1784 3584 
Q 2172 3584 2448 3432 
Q 2725 3281 2906 2969 
z
M 947 1747 
Q 947 1113 1208 752 
Q 1469 391 1925 391 
Q 2381 391 2643 752 
Q 2906 1113 2906 1747 
Q 2906 2381 2643 2742 
Q 2381 3103 1925 3103 
Q 1469 3103 1208 2742 
Q 947 2381 947 1747 
z
" transform="scale(0.015625)"/>
       <path id="DejaVuSans-6f" d="M 1959 3097 
Q 1497 3097 1228 2736 
Q 959 2375 959 1747 
Q 959 1119 1226 758 
Q 1494 397 1959 397 
Q 2419 397 2687 759 
Q 2956 1122 2956 1747 
Q 2956 2369 2687 2733 
Q 2419 3097 1959 3097 
z
M 1959 3584 
Q 2709 3584 3137 3096 
Q 3566 2609 3566 1747 
Q 3566 888 3137 398 
Q 2709 -91 1959 -91 
Q 1206 -91 779 398 
Q 353 888 353 1747 
Q 353 2609 779 3096 
Q 1206 3584 1959 3584 
z
" transform="scale(0.015625)"/>
       <path id="DejaVuSans-75" d="M 544 1381 
L 544 3500 
L 1119 3500 
L 1119 1403 
Q 1119 906 1312 657 
Q 1506 409 1894 409 
Q 2359 409 2629 706 
Q 2900 1003 2900 1516 
L 2900 3500 
L 3475 3500 
L 3475 0 
L 2900 0 
L 2900 538 
Q 2691 219 2414 64 
Q 2138 -91 1772 -91 
Q 1169 -91 856 284 
Q 544 659 544 1381 
z
M 1991 3584 
L 1991 3584 
z
" transform="scale(0.015625)"/>
       <path id="DejaVuSans-74" d="M 1172 4494 
L 1172 3500 
L 2356 3500 
L 2356 3053 
L 1172 3053 
L 1172 1153 
Q 1172 725 1289 603 
Q 1406 481 1766 481 
L 2356 481 
L 2356 0 
L 1766 0 
Q 1100 0 847 248 
Q 594 497 594 1153 
L 594 3053 
L 172 3053 
L 172 3500 
L 594 3500 
L 594 4494 
L 1172 4494 
z
" transform="scale(0.015625)"/>
       <path id="DejaVuSans-63" d="M 3122 3366 
L 3122 2828 
Q 2878 2963 2633 3030 
Q 2388 3097 2138 3097 
Q 1578 3097 1268 2742 
Q 959 2388 959 1747 
Q 959 1106 1268 751 
Q 1578 397 2138 397 
Q 2388 397 2633 464 
Q 2878 531 3122 666 
L 3122 134 
Q 2881 22 2623 -34 
Q 2366 -91 2075 -91 
Q 1284 -91 818 406 
Q 353 903 353 1747 
Q 353 2603 823 3093 
Q 1294 3584 2113 3584 
Q 2378 3584 2631 3529 
Q 2884 3475 3122 3366 
z
" transform="scale(0.015625)"/>
       <path id="DejaVuSans-68" d="M 3513 2113 
L 3513 0 
L 2938 0 
L 2938 2094 
Q 2938 2591 2744 2837 
Q 2550 3084 2163 3084 
Q 1697 3084 1428 2787 
Q 1159 2491 1159 1978 
L 1159 0 
L 581 0 
L 581 4863 
L 1159 4863 
L 1159 2956 
Q 1366 3272 1645 3428 
Q 1925 3584 2291 3584 
Q 2894 3584 3203 3211 
Q 3513 2838 3513 2113 
z
" transform="scale(0.015625)"/>
       <path id="DejaVuSans-72" d="M 2631 2963 
Q 2534 3019 2420 3045 
Q 2306 3072 2169 3072 
Q 1681 3072 1420 2755 
Q 1159 2438 1159 1844 
L 1159 0 
L 581 0 
L 581 3500 
L 1159 3500 
L 1159 2956 
Q 1341 3275 1631 3429 
Q 1922 3584 2338 3584 
Q 2397 3584 2469 3576 
Q 2541 3569 2628 3553 
L 2631 2963 
z
" transform="scale(0.015625)"/>
       <path id="DejaVuSans-67" d="M 2906 1791 
Q 2906 2416 2648 2759 
Q 2391 3103 1925 3103 
Q 1463 3103 1205 2759 
Q 947 2416 947 1791 
Q 947 1169 1205 825 
Q 1463 481 1925 481 
Q 2391 481 2648 825 
Q 2906 1169 2906 1791 
z
M 3481 434 
Q 3481 -459 3084 -895 
Q 2688 -1331 1869 -1331 
Q 1566 -1331 1297 -1286 
Q 1028 -1241 775 -1147 
L 775 -588 
Q 1028 -725 1275 -790 
Q 1522 -856 1778 -856 
Q 2344 -856 2625 -561 
Q 2906 -266 2906 331 
L 2906 616 
Q 2728 306 2450 153 
Q 2172 0 1784 0 
Q 1141 0 747 490 
Q 353 981 353 1791 
Q 353 2603 747 3093 
Q 1141 3584 1784 3584 
Q 2172 3584 2450 3431 
Q 2728 3278 2906 2969 
L 2906 3500 
L 3481 3500 
L 3481 434 
z
" transform="scale(0.015625)"/>
       <path id="DejaVuSans-66" d="M 2375 4863 
L 2375 4384 
L 1825 4384 
Q 1516 4384 1395 4259 
Q 1275 4134 1275 3809 
L 1275 3500 
L 2222 3500 
L 2222 3053 
L 1275 3053 
L 1275 0 
L 697 0 
L 697 3053 
L 147 3053 
L 147 3500 
L 697 3500 
L 697 3744 
Q 697 4328 969 4595 
Q 1241 4863 1831 4863 
L 2375 4863 
z
" transform="scale(0.015625)"/>
      </defs>
      <use xlink:href="#DejaVuSans-52"/>
      <use xlink:href="#DejaVuSans-65" x="64.982422"/>
      <use xlink:href="#DejaVuSans-61" x="126.505859"/>
      <use xlink:href="#DejaVuSans-64" x="187.785156"/>
      <use xlink:href="#DejaVuSans-6f" x="251.261719"/>
      <use xlink:href="#DejaVuSans-75" x="312.443359"/>
      <use xlink:href="#DejaVuSans-74" x="375.822266"/>
      <use xlink:href="#DejaVuSans-20" x="415.03125"/>
      <use xlink:href="#DejaVuSans-69" x="446.818359"/>
      <use xlink:href="#DejaVuSans-6e" x="474.601562"/>
      <use xlink:href="#DejaVuSans-64" x="537.980469"/>
      <use xlink:href="#DejaVuSans-75" x="601.457031"/>
      <use xlink:href="#DejaVuSans-63" x="664.835938"/>
      <use xlink:href="#DejaVuSans-65" x="719.816406"/>
      <use xlink:href="#DejaVuSans-64" x="781.339844"/>
      <use xlink:href="#DejaVuSans-20" x="844.816406"/>
      <use xlink:href="#DejaVuSans-63" x="876.603516"/>
      <use xlink:href="#DejaVuSans-68" x="931.583984"/>
      <use xlink:href="#DejaVuSans-61" x="994.962891"/>
      <use xlink:href="#DejaVuSans-72" x="1056.242188"/>
      <use xlink:href="#DejaVuSans-67" x="1095.605469"/>
      <use xlink:href="#DejaVuSans-65" x="1159.082031"/>
      <use xlink:href="#DejaVuSans-20" x="1220.605469"/>
      <use xlink:href="#DejaVuSans-66" x="1252.392578"/>
      <use xlink:href="#DejaVuSans-72" x="1287.597656"/>
      <use xlink:href="#DejaVuSans-61" x="1328.710938"/>
      <use xlink:href="#DejaVuSans-63" x="1389.990234"/>
      <use xlink:href="#DejaVuSans-74" x="1444.970703"/>
      <use xlink:href="#DejaVuSans-69" x="1484.179688"/>
      <use xlink:href="#DejaVuSans-6f" x="1511.962891"/>
      <use xlink:href="#DejaVuSans-6e" x="1573.144531"/>
     </g>
    </g>
   </g>
   <g id="line2d_23">
    <path d="M 47.779375 266.929535 
L 55.24376 265.00647 
L 69.17728 263.220231 
L 73.655911 262.411297 
L 76.641665 261.667546 
L 79.129794 260.779023 
L 80.622671 259.987937 
L 84.10605 257.466847 
L 86.594179 255.955413 
L 89.579933 254.406419 
L 93.063313 252.843112 
L 96.546693 251.504969 
L 100.030073 250.386929 
L 103.513452 249.477038 
L 107.992084 248.550914 
L 114.958843 247.414756 
L 121.427977 246.271064 
L 126.404234 245.06796 
L 129.389988 244.160215 
L 131.878117 243.25103 
L 134.366245 242.172443 
L 136.356748 241.173058 
L 138.844877 239.663521 
L 140.835379 238.211046 
L 142.825882 236.453525 
L 144.318759 234.888639 
L 145.811636 233.04467 
L 147.304513 230.844823 
L 148.79739 228.1745 
L 149.792642 226.039893 
L 150.787893 223.538734 
L 151.783145 220.565984 
L 152.778396 216.954059 
L 153.773647 212.441828 
L 154.768899 206.605351 
L 155.76415 198.596671 
L 156.261776 193.227254 
L 156.759401 186.409207 
L 157.257027 177.059894 
L 157.754653 165.559233 
L 158.252279 159.943874 
L 191.5932 159.369767 
L 211.000602 158.831836 
L 224.934121 158.24735 
L 235.384261 157.603508 
L 242.848646 156.952091 
L 248.820154 156.235231 
L 252.80116 155.575199 
L 256.28454 154.76469 
L 258.275043 154.024965 
L 259.270294 153.442684 
L 260.265545 152.42458 
L 261.758422 151.314708 
L 264.246551 149.794191 
L 267.232305 148.253788 
L 270.715685 146.713375 
L 274.199065 145.401386 
L 277.682445 144.304491 
L 281.165824 143.422023 
L 285.14683 142.643476 
L 290.123087 141.870859 
L 296.592221 140.889988 
L 301.568478 139.88538 
L 305.051858 138.9848 
L 308.037612 138.023531 
L 311.520992 136.585951 
L 314.00912 135.329769 
L 316.497249 133.768333 
L 318.487751 132.24913 
L 320.478254 130.400748 
L 321.971131 128.73595 
L 323.464008 126.762654 
L 324.956885 124.380232 
L 326.449762 121.454773 
L 327.445014 119.087102 
L 328.440265 116.282598 
L 329.435517 112.90579 
L 330.430768 108.722286 
L 331.426019 103.376495 
L 332.421271 96.221595 
L 332.918896 91.550449 
L 333.416522 85.78235 
L 333.914148 78.26729 
L 334.909399 56.594797 
L 335.407025 54.356804 
L 392.932555 54.356804 
L 392.932555 54.356804 
" clip-path="url(#p4a8349e14d)" style="fill: none; stroke: #1f77b4; stroke-width: 1.5; stroke-linecap: square"/>
   </g>
   <g id="line2d_24">
    <path d="M 47.779375 266.929535 
L 138.844877 266.634656 
L 170.195295 266.301192 
L 204.033842 265.765081 
L 228.915127 265.080677 
L 247.327277 264.324862 
L 257.777417 263.708976 
L 266.734679 263.00999 
L 274.199065 262.236578 
L 280.170573 261.418084 
L 284.649204 260.574527 
L 287.634958 259.812825 
L 289.127835 259.304481 
L 290.620713 258.549991 
L 291.118338 258.200108 
L 292.611215 256.846314 
L 294.601718 255.435969 
L 297.587472 253.680565 
L 301.070852 251.921046 
L 304.554232 250.395651 
L 308.037612 249.081459 
L 312.018617 247.81817 
L 315.999623 246.801932 
L 320.97588 245.719573 
L 328.440265 244.106414 
L 332.918896 242.851997 
L 336.402276 241.643845 
L 338.890405 240.603114 
L 341.378533 239.388393 
L 343.369036 238.24853 
L 345.857164 236.575386 
L 347.847667 234.940977 
L 349.340544 233.507778 
L 350.833421 231.749884 
L 351.828673 230.292751 
L 353.32155 227.379693 
L 355.312052 223.604538 
L 357.302555 219.369736 
L 358.795432 215.658795 
L 360.288309 211.228251 
L 361.283561 207.703144 
L 362.278812 203.516847 
L 363.274064 198.385605 
L 364.269315 191.845599 
L 365.264566 182.88921 
L 365.762192 176.909712 
L 366.259818 169.128328 
L 367.255069 146.894881 
L 367.752695 145.093172 
L 371.236075 144.057318 
L 374.719454 143.233284 
L 379.198086 142.413455 
L 394.126856 139.935101 
L 397.610236 139.052995 
L 400.098365 138.280388 
L 402.586493 137.363832 
L 404.576996 136.497222 
L 407.065124 135.233307 
L 409.553253 133.670558 
L 411.543756 132.146787 
L 413.534258 130.300033 
L 415.027135 128.635617 
L 416.520013 126.663301 
L 418.01289 124.285515 
L 419.505767 121.363163 
L 420.501018 119.002039 
L 421.496269 116.206463 
L 422.491521 112.841828 
L 423.486772 108.675898 
L 424.482024 103.349552 
L 425.477275 96.225535 
L 425.974901 91.576246 
L 426.472526 85.830767 
L 426.970152 78.344523 
L 427.965403 56.654172 
L 428.463029 54.387148 
L 504.59976 54.387148 
L 504.59976 54.387148 
" clip-path="url(#p4a8349e14d)" style="fill: none; stroke: #ff7f0e; stroke-width: 1.5; stroke-linecap: square"/>
   </g>
   <g id="line2d_25">
    <path d="M 47.779375 266.929535 
L 133.370994 266.580162 
L 160.740407 266.241306 
L 197.067083 265.575127 
L 218.464987 264.93801 
L 232.398507 264.370109 
L 246.829652 263.579703 
L 254.791663 262.989877 
L 264.744177 262.021906 
L 272.208562 261.026693 
L 277.184819 260.154914 
L 281.66345 259.161235 
L 285.14683 258.124929 
L 287.137333 257.363673 
L 288.63021 256.655106 
L 289.625461 256.040327 
L 290.620713 255.221501 
L 291.118338 254.677624 
L 292.611215 252.559596 
L 294.601718 250.367637 
L 297.089847 248.080053 
L 299.577975 246.072269 
L 302.563729 243.947262 
L 305.549483 242.081263 
L 308.535237 240.468181 
L 311.520992 239.103119 
L 314.506746 237.979832 
L 318.985377 236.602525 
L 330.928394 233.26588 
L 333.416522 232.329031 
L 335.904651 231.242081 
L 338.392779 229.97071 
L 340.880907 228.471516 
L 343.369036 226.680916 
L 345.857164 224.550811 
L 347.847667 222.480092 
L 349.340544 220.69033 
L 350.833421 218.57044 
L 351.828673 216.934947 
L 354.316801 211.859768 
L 355.809678 208.316254 
L 357.302555 204.162109 
L 358.795432 199.157189 
L 359.790684 195.171647 
L 360.785935 190.496454 
L 361.781186 184.914153 
L 362.776438 178.041675 
L 363.771689 169.314421 
L 364.766941 157.669469 
L 365.264566 150.090477 
L 365.762192 140.744149 
L 366.259818 128.509448 
L 367.255069 93.349806 
L 367.752695 90.665884 
L 373.226577 90.053122 
L 379.695711 89.56207 
L 395.619734 88.463351 
L 401.591242 87.727605 
L 406.069873 86.938346 
L 409.553253 86.096846 
L 412.041381 85.3168 
L 414.52951 84.319444 
L 416.520013 83.29394 
L 418.510515 81.981578 
L 420.003392 80.720711 
L 421.496269 79.111201 
L 422.491521 77.765339 
L 423.486772 76.098982 
L 424.482024 73.968428 
L 425.477275 71.118829 
L 425.974901 69.259137 
L 426.472526 66.960926 
L 426.970152 63.966409 
L 427.965403 55.290296 
L 428.463029 54.383463 
L 504.59976 54.383463 
L 504.59976 54.383463 
" clip-path="url(#p4a8349e14d)" style="fill: none; stroke: #2ca02c; stroke-width: 1.5; stroke-linecap: square"/>
   </g>
   <g id="line2d_26">
    <path d="M 47.779375 266.929535 
L 115.954095 266.23502 
L 137.849625 265.75976 
L 160.242781 265.062481 
L 176.664429 264.333738 
L 191.095574 263.436677 
L 201.545714 262.523247 
L 209.010099 261.635662 
L 215.479233 260.604783 
L 219.957864 259.616627 
L 222.943618 258.717786 
L 224.934121 257.831562 
L 225.929373 257.144595 
L 226.924624 256.103908 
L 228.417501 254.894472 
L 230.90563 253.211119 
L 233.891384 251.441142 
L 237.872389 249.345018 
L 242.35102 247.234779 
L 247.327277 245.136736 
L 252.80116 242.786288 
L 254.294037 241.944387 
L 255.289288 241.192347 
L 256.28454 239.998088 
L 257.777417 238.660968 
L 260.265545 236.726014 
L 264.246551 233.972237 
L 272.706188 228.234793 
L 277.184819 224.799091 
L 279.672947 222.579112 
L 281.66345 220.492388 
L 283.653953 218.019155 
L 285.14683 215.807443 
L 286.639707 213.174683 
L 288.132584 209.925347 
L 289.127835 207.30945 
L 290.123087 204.212884 
L 291.118338 200.487095 
L 292.11359 195.852919 
L 293.108841 189.916422 
L 294.104092 181.944251 
L 294.601718 176.735547 
L 295.099344 170.281913 
L 295.596969 161.96098 
L 296.592221 139.793328 
L 299.080349 139.037049 
L 301.568478 138.113966 
L 304.554232 136.68947 
L 306.544735 135.529397 
L 308.535237 134.110527 
L 310.52574 132.366478 
L 312.018617 130.774551 
L 313.511494 128.859522 
L 315.004371 126.536446 
L 316.497249 123.646809 
L 317.4925 121.294193 
L 318.487751 118.494148 
L 319.483003 115.089025 
L 320.478254 110.864014 
L 321.473505 105.452496 
L 322.468757 98.20972 
L 322.966383 93.535183 
L 323.464008 87.795664 
L 323.961634 80.553524 
L 324.956885 59.784728 
L 325.454511 54.370016 
L 380.989538 54.370016 
L 380.989538 54.370016 
" clip-path="url(#p4a8349e14d)" style="fill: none; stroke: #d62728; stroke-width: 1.5; stroke-linecap: square"/>
   </g>
   <g id="line2d_27">
    <path d="M 47.779375 266.929535 
L 141.830631 266.687581 
L 185.124066 266.268638 
L 211.000602 265.860459 
L 235.881886 265.180936 
L 251.805909 264.541366 
L 262.256048 263.946669 
L 272.706188 263.145062 
L 280.668199 262.281883 
L 285.644456 261.516486 
L 288.63021 260.86225 
L 290.123087 260.387697 
L 291.118338 259.91754 
L 292.611215 258.942814 
L 295.099344 257.69102 
L 298.582724 256.236896 
L 303.061355 254.642761 
L 308.037612 253.150515 
L 312.516243 252.034862 
L 317.990126 250.90023 
L 329.933142 248.436764 
L 333.914148 247.310487 
L 337.397528 246.087049 
L 340.880907 244.528561 
L 342.87141 243.441055 
L 344.861913 242.138511 
L 346.35479 240.932805 
L 347.350041 239.930348 
L 348.345293 238.605039 
L 350.833421 234.727022 
L 354.814427 228.836858 
L 356.80493 225.546809 
L 358.297807 222.765347 
L 359.790684 219.555211 
L 361.283561 215.706453 
L 362.278812 212.59841 
L 363.274064 208.838033 
L 364.269315 204.102141 
L 365.264566 197.686413 
L 365.762192 193.432106 
L 366.259818 187.919516 
L 367.255069 172.231823 
L 367.752695 170.912238 
L 371.236075 169.845726 
L 375.714706 168.768972 
L 388.155348 166.044454 
L 392.136354 164.705875 
L 394.624482 163.659788 
L 396.614985 162.667852 
L 399.103113 161.188167 
L 401.093616 159.789419 
L 403.084119 158.099383 
L 405.074622 156.067535 
L 406.567499 154.246361 
L 408.060376 152.10484 
L 409.553253 149.55878 
L 411.04613 146.469849 
L 412.539007 142.670096 
L 413.534258 139.589447 
L 414.52951 135.93079 
L 415.524761 131.523744 
L 416.520013 126.054861 
L 417.515264 119.093355 
L 418.510515 109.764835 
L 419.008141 103.731676 
L 419.505767 96.272933 
L 420.003392 86.718586 
L 420.998644 59.143347 
L 421.496269 54.39197 
L 496.239648 54.39197 
L 496.239648 54.39197 
" clip-path="url(#p4a8349e14d)" style="fill: none; stroke: #9467bd; stroke-width: 1.5; stroke-linecap: square"/>
   </g>
   <g id="patch_3">
    <path d="M 47.779375 277.558171 
L 47.779375 43.728168 
" style="fill: none; stroke: #000000; stroke-width: 0.8; stroke-linejoin: miter; stroke-linecap: square"/>
   </g>
   <g id="patch_4">
    <path d="M 47.779375 277.558171 
L 504.59976 277.558171 
" style="fill: none; stroke: #000000; stroke-width: 0.8; stroke-linejoin: miter; stroke-linecap: square"/>
   </g>
   <g id="text_14">
    <!-- 2-site pulse detail | total 662 keV -->
    <g transform="translate(166.777036 37.728168) scale(0.132 -0.132)">
     <defs>
      <path id="DejaVuSans-2d" d="M 313 2009 
L 1997 2009 
L 1997 1497 
L 313 1497 
L 313 2009 
z
" transform="scale(0.015625)"/>
      <path id="DejaVuSans-70" d="M 1159 525 
L 1159 -1331 
L 581 -1331 
L 581 3500 
L 1159 3500 
L 1159 2969 
Q 1341 3281 1617 3432 
Q 1894 3584 2278 3584 
Q 2916 3584 3314 3078 
Q 3713 2572 3713 1747 
Q 3713 922 3314 415 
Q 2916 -91 2278 -91 
Q 1894 -91 1617 61 
Q 1341 213 1159 525 
z
M 3116 1747 
Q 3116 2381 2855 2742 
Q 2594 3103 2138 3103 
Q 1681 3103 1420 2742 
Q 1159 2381 1159 1747 
Q 1159 1113 1420 752 
Q 1681 391 2138 391 
Q 2594 391 2855 752 
Q 3116 1113 3116 1747 
z
" transform="scale(0.015625)"/>
      <path id="DejaVuSans-6c" d="M 603 4863 
L 1178 4863 
L 1178 0 
L 603 0 
L 603 4863 
z
" transform="scale(0.015625)"/>
      <path id="DejaVuSans-7c" d="M 1344 4891 
L 1344 -1509 
L 813 -1509 
L 813 4891 
L 1344 4891 
z
" transform="scale(0.015625)"/>
      <path id="DejaVuSans-6b" d="M 581 4863 
L 1159 4863 
L 1159 1991 
L 2875 3500 
L 3609 3500 
L 1753 1863 
L 3688 0 
L 2938 0 
L 1159 1709 
L 1159 0 
L 581 0 
L 581 4863 
z
" transform="scale(0.015625)"/>
      <path id="DejaVuSans-56" d="M 1831 0 
L 50 4666 
L 709 4666 
L 2188 738 
L 3669 4666 
L 4325 4666 
L 2547 0 
L 1831 0 
z
" transform="scale(0.015625)"/>
     </defs>
     <use xlink:href="#DejaVuSans-32"/>
     <use xlink:href="#DejaVuSans-2d" x="63.623047"/>
     <use xlink:href="#DejaVuSans-73" x="99.707031"/>
     <use xlink:href="#DejaVuSans-69" x="151.806641"/>
     <use xlink:href="#DejaVuSans-74" x="179.589844"/>
     <use xlink:href="#DejaVuSans-65" x="218.798828"/>
     <use xlink:href="#DejaVuSans-20" x="280.322266"/>
     <use xlink:href="#DejaVuSans-70" x="312.109375"/>
     <use xlink:href="#DejaVuSans-75" x="375.585938"/>
     <use xlink:href="#DejaVuSans-6c" x="438.964844"/>
     <use xlink:href="#DejaVuSans-73" x="466.748047"/>
     <use xlink:href="#DejaVuSans-65" x="518.847656"/>
     <use xlink:href="#DejaVuSans-20" x="580.371094"/>
     <use xlink:href="#DejaVuSans-64" x="612.158203"/>
     <use xlink:href="#DejaVuSans-65" x="675.634766"/>
     <use xlink:href="#DejaVuSans-74" x="737.158203"/>
     <use xlink:href="#DejaVuSans-61" x="776.367188"/>
     <use xlink:href="#DejaVuSans-69" x="837.646484"/>
     <use xlink:href="#DejaVuSans-6c" x="865.429688"/>
     <use xlink:href="#DejaVuSans-20" x="893.212891"/>
     <use xlink:href="#DejaVuSans-7c" x="925"/>
     <use xlink:href="#DejaVuSans-20" x="958.691406"/>
     <use xlink:href="#DejaVuSans-74" x="990.478516"/>
     <use xlink:href="#DejaVuSans-6f" x="1029.6875"/>
     <use xlink:href="#DejaVuSans-74" x="1090.869141"/>
     <use xlink:href="#DejaVuSans-61" x="1130.078125"/>
     <use xlink:href="#DejaVuSans-6c" x="1191.357422"/>
     <use xlink:href="#DejaVuSans-20" x="1219.140625"/>
     <use xlink:href="#DejaVuSans-36" x="1250.927734"/>
     <use xlink:href="#DejaVuSans-36" x="1314.550781"/>
     <use xlink:href="#DejaVuSans-32" x="1378.173828"/>
     <use xlink:href="#DejaVuSans-20" x="1441.796875"/>
     <use xlink:href="#DejaVuSans-6b" x="1473.583984"/>
     <use xlink:href="#DejaVuSans-65" x="1527.869141"/>
     <use xlink:href="#DejaVuSans-56" x="1589.392578"/>
    </g>
   </g>
   <g id="legend_1">
    <g id="line2d_28">
     <path d="M 123.760505 340.789366 
L 132.760505 340.789366 
L 141.760505 340.789366 
" style="fill: none; stroke: #1f77b4; stroke-width: 1.5; stroke-linecap: square"/>
    </g>
    <g id="text_15">
     <!-- multisite -->
     <g transform="translate(148.960505 343.939366) scale(0.09 -0.09)">
      <use xlink:href="#DejaVuSans-6d"/>
      <use xlink:href="#DejaVuSans-75" x="97.412109"/>
      <use xlink:href="#DejaVuSans-6c" x="160.791016"/>
      <use xlink:href="#DejaVuSans-74" x="188.574219"/>
      <use xlink:href="#DejaVuSans-69" x="227.783203"/>
      <use xlink:href="#DejaVuSans-73" x="255.566406"/>
      <use xlink:href="#DejaVuSans-69" x="307.666016"/>
      <use xlink:href="#DejaVuSans-74" x="335.449219"/>
      <use xlink:href="#DejaVuSans-65" x="374.658203"/>
     </g>
    </g>
    <g id="line2d_29">
     <path d="M 123.760505 353.999678 
L 132.760505 353.999678 
L 141.760505 353.999678 
" style="fill: none; stroke: #ff7f0e; stroke-width: 1.5; stroke-linecap: square"/>
    </g>
    <g id="text_16">
     <!-- two wide equal -->
     <g transform="translate(148.960505 357.149678) scale(0.09 -0.09)">
      <defs>
       <path id="DejaVuSans-77" d="M 269 3500 
L 844 3500 
L 1563 769 
L 2278 3500 
L 2956 3500 
L 3675 769 
L 4391 3500 
L 4966 3500 
L 4050 0 
L 3372 0 
L 2619 2869 
L 1863 0 
L 1184 0 
L 269 3500 
z
" transform="scale(0.015625)"/>
       <path id="DejaVuSans-71" d="M 947 1747 
Q 947 1113 1208 752 
Q 1469 391 1925 391 
Q 2381 391 2643 752 
Q 2906 1113 2906 1747 
Q 2906 2381 2643 2742 
Q 2381 3103 1925 3103 
Q 1469 3103 1208 2742 
Q 947 2381 947 1747 
z
M 2906 525 
Q 2725 213 2448 61 
Q 2172 -91 1784 -91 
Q 1150 -91 751 415 
Q 353 922 353 1747 
Q 353 2572 751 3078 
Q 1150 3584 1784 3584 
Q 2172 3584 2448 3432 
Q 2725 3281 2906 2969 
L 2906 3500 
L 3481 3500 
L 3481 -1331 
L 2906 -1331 
L 2906 525 
z
" transform="scale(0.015625)"/>
      </defs>
      <use xlink:href="#DejaVuSans-74"/>
      <use xlink:href="#DejaVuSans-77" x="39.208984"/>
      <use xlink:href="#DejaVuSans-6f" x="120.996094"/>
      <use xlink:href="#DejaVuSans-20" x="182.177734"/>
      <use xlink:href="#DejaVuSans-77" x="213.964844"/>
      <use xlink:href="#DejaVuSans-69" x="295.751953"/>
      <use xlink:href="#DejaVuSans-64" x="323.535156"/>
      <use xlink:href="#DejaVuSans-65" x="387.011719"/>
      <use xlink:href="#DejaVuSans-20" x="448.535156"/>
      <use xlink:href="#DejaVuSans-65" x="480.322266"/>
      <use xlink:href="#DejaVuSans-71" x="541.845703"/>
      <use xlink:href="#DejaVuSans-75" x="605.322266"/>
      <use xlink:href="#DejaVuSans-61" x="668.701172"/>
      <use xlink:href="#DejaVuSans-6c" x="729.980469"/>
     </g>
    </g>
    <g id="line2d_30">
     <path d="M 235.159411 340.789366 
L 244.159411 340.789366 
L 253.159411 340.789366 
" style="fill: none; stroke: #2ca02c; stroke-width: 1.5; stroke-linecap: square"/>
    </g>
    <g id="text_17">
     <!-- two wide unequal -->
     <g transform="translate(260.359411 343.939366) scale(0.09 -0.09)">
      <use xlink:href="#DejaVuSans-74"/>
      <use xlink:href="#DejaVuSans-77" x="39.208984"/>
      <use xlink:href="#DejaVuSans-6f" x="120.996094"/>
      <use xlink:href="#DejaVuSans-20" x="182.177734"/>
      <use xlink:href="#DejaVuSans-77" x="213.964844"/>
      <use xlink:href="#DejaVuSans-69" x="295.751953"/>
      <use xlink:href="#DejaVuSans-64" x="323.535156"/>
      <use xlink:href="#DejaVuSans-65" x="387.011719"/>
      <use xlink:href="#DejaVuSans-20" x="448.535156"/>
      <use xlink:href="#DejaVuSans-75" x="480.322266"/>
      <use xlink:href="#DejaVuSans-6e" x="543.701172"/>
      <use xlink:href="#DejaVuSans-65" x="607.080078"/>
      <use xlink:href="#DejaVuSans-71" x="668.603516"/>
      <use xlink:href="#DejaVuSans-75" x="732.080078"/>
      <use xlink:href="#DejaVuSans-61" x="795.458984"/>
      <use xlink:href="#DejaVuSans-6c" x="856.738281"/>
     </g>
    </g>
    <g id="line2d_31">
     <path d="M 235.159411 353.999678 
L 244.159411 353.999678 
L 253.159411 353.999678 
" style="fill: none; stroke: #d62728; stroke-width: 1.5; stroke-linecap: square"/>
    </g>
    <g id="text_18">
     <!-- two nearby -->
     <g transform="translate(260.359411 357.149678) scale(0.09 -0.09)">
      <defs>
       <path id="DejaVuSans-62" d="M 3116 1747 
Q 3116 2381 2855 2742 
Q 2594 3103 2138 3103 
Q 1681 3103 1420 2742 
Q 1159 2381 1159 1747 
Q 1159 1113 1420 752 
Q 1681 391 2138 391 
Q 2594 391 2855 752 
Q 3116 1113 3116 1747 
z
M 1159 2969 
Q 1341 3281 1617 3432 
Q 1894 3584 2278 3584 
Q 2916 3584 3314 3078 
Q 3713 2572 3713 1747 
Q 3713 922 3314 415 
Q 2916 -91 2278 -91 
Q 1894 -91 1617 61 
Q 1341 213 1159 525 
L 1159 0 
L 581 0 
L 581 4863 
L 1159 4863 
L 1159 2969 
z
" transform="scale(0.015625)"/>
       <path id="DejaVuSans-79" d="M 2059 -325 
Q 1816 -950 1584 -1140 
Q 1353 -1331 966 -1331 
L 506 -1331 
L 506 -850 
L 844 -850 
Q 1081 -850 1212 -737 
Q 1344 -625 1503 -206 
L 1606 56 
L 191 3500 
L 800 3500 
L 1894 763 
L 2988 3500 
L 3597 3500 
L 2059 -325 
z
" transform="scale(0.015625)"/>
      </defs>
      <use xlink:href="#DejaVuSans-74"/>
      <use xlink:href="#DejaVuSans-77" x="39.208984"/>
      <use xlink:href="#DejaVuSans-6f" x="120.996094"/>
      <use xlink:href="#DejaVuSans-20" x="182.177734"/>
      <use xlink:href="#DejaVuSans-6e" x="213.964844"/>
      <use xlink:href="#DejaVuSans-65" x="277.34375"/>
      <use xlink:href="#DejaVuSans-61" x="338.867188"/>
      <use xlink:href="#DejaVuSans-72" x="400.146484"/>
      <use xlink:href="#DejaVuSans-62" x="441.259766"/>
      <use xlink:href="#DejaVuSans-79" x="504.736328"/>
     </g>
    </g>
    <g id="line2d_32">
     <path d="M 357.965817 340.789366 
L 366.965817 340.789366 
L 375.965817 340.789366 
" style="fill: none; stroke: #9467bd; stroke-width: 1.5; stroke-linecap: square"/>
    </g>
    <g id="text_19">
     <!-- two depth -->
     <g transform="translate(383.165817 343.939366) scale(0.09 -0.09)">
      <use xlink:href="#DejaVuSans-74"/>
      <use xlink:href="#DejaVuSans-77" x="39.208984"/>
      <use xlink:href="#DejaVuSans-6f" x="120.996094"/>
      <use xlink:href="#DejaVuSans-20" x="182.177734"/>
      <use xlink:href="#DejaVuSans-64" x="213.964844"/>
      <use xlink:href="#DejaVuSans-65" x="277.441406"/>
      <use xlink:href="#DejaVuSans-70" x="338.964844"/>
      <use xlink:href="#DejaVuSans-74" x="402.441406"/>
      <use xlink:href="#DejaVuSans-68" x="441.650391"/>
     </g>
    </g>
   </g>
  </g>
  <g id="axes_2">
   <g id="patch_5">
    <path d="M 553.819135 277.558171 
L 1010.63952 277.558171 
L 1010.63952 43.728168 
L 553.819135 43.728168 
z
" style="fill: #ffffff"/>
   </g>
   <g id="matplotlib.axis_3">
    <g id="xtick_6">
     <g id="line2d_33">
      <path d="M 553.819135 277.558171 
L 553.819135 43.728168 
" clip-path="url(#pbf8ae571dc)" style="fill: none; stroke: #b0b0b0; stroke-opacity: 0.18; stroke-width: 0.8; stroke-linecap: square"/>
     </g>
     <g id="line2d_34">
      <g>
       <use xlink:href="#m480ec8ce82" x="553.819135" y="277.558171" style="stroke: #000000; stroke-width: 0.8"/>
      </g>
     </g>
     <g id="text_20">
      <!-- 0 -->
      <g transform="translate(550.31976 292.916452) scale(0.11 -0.11)">
       <use xlink:href="#DejaVuSans-30"/>
      </g>
     </g>
    </g>
    <g id="xtick_7">
     <g id="line2d_35">
      <path d="M 655.199602 277.558171 
L 655.199602 43.728168 
" clip-path="url(#pbf8ae571dc)" style="fill: none; stroke: #b0b0b0; stroke-opacity: 0.18; stroke-width: 0.8; stroke-linecap: square"/>
     </g>
     <g id="line2d_36">
      <g>
       <use xlink:href="#m480ec8ce82" x="655.199602" y="277.558171" style="stroke: #000000; stroke-width: 0.8"/>
      </g>
     </g>
     <g id="text_21">
      <!-- 100 -->
      <g transform="translate(644.701477 292.916452) scale(0.11 -0.11)">
       <use xlink:href="#DejaVuSans-31"/>
       <use xlink:href="#DejaVuSans-30" x="63.623047"/>
       <use xlink:href="#DejaVuSans-30" x="127.246094"/>
      </g>
     </g>
    </g>
    <g id="xtick_8">
     <g id="line2d_37">
      <path d="M 756.580069 277.558171 
L 756.580069 43.728168 
" clip-path="url(#pbf8ae571dc)" style="fill: none; stroke: #b0b0b0; stroke-opacity: 0.18; stroke-width: 0.8; stroke-linecap: square"/>
     </g>
     <g id="line2d_38">
      <g>
       <use xlink:href="#m480ec8ce82" x="756.580069" y="277.558171" style="stroke: #000000; stroke-width: 0.8"/>
      </g>
     </g>
     <g id="text_22">
      <!-- 200 -->
      <g transform="translate(746.081944 292.916452) scale(0.11 -0.11)">
       <use xlink:href="#DejaVuSans-32"/>
       <use xlink:href="#DejaVuSans-30" x="63.623047"/>
       <use xlink:href="#DejaVuSans-30" x="127.246094"/>
      </g>
     </g>
    </g>
    <g id="xtick_9">
     <g id="line2d_39">
      <path d="M 857.960536 277.558171 
L 857.960536 43.728168 
" clip-path="url(#pbf8ae571dc)" style="fill: none; stroke: #b0b0b0; stroke-opacity: 0.18; stroke-width: 0.8; stroke-linecap: square"/>
     </g>
     <g id="line2d_40">
      <g>
       <use xlink:href="#m480ec8ce82" x="857.960536" y="277.558171" style="stroke: #000000; stroke-width: 0.8"/>
      </g>
     </g>
     <g id="text_23">
      <!-- 300 -->
      <g transform="translate(847.462411 292.916452) scale(0.11 -0.11)">
       <use xlink:href="#DejaVuSans-33"/>
       <use xlink:href="#DejaVuSans-30" x="63.623047"/>
       <use xlink:href="#DejaVuSans-30" x="127.246094"/>
      </g>
     </g>
    </g>
    <g id="xtick_10">
     <g id="line2d_41">
      <path d="M 959.341004 277.558171 
L 959.341004 43.728168 
" clip-path="url(#pbf8ae571dc)" style="fill: none; stroke: #b0b0b0; stroke-opacity: 0.18; stroke-width: 0.8; stroke-linecap: square"/>
     </g>
     <g id="line2d_42">
      <g>
       <use xlink:href="#m480ec8ce82" x="959.341004" y="277.558171" style="stroke: #000000; stroke-width: 0.8"/>
      </g>
     </g>
     <g id="text_24">
      <!-- 400 -->
      <g transform="translate(948.842879 292.916452) scale(0.11 -0.11)">
       <use xlink:href="#DejaVuSans-34"/>
       <use xlink:href="#DejaVuSans-30" x="63.623047"/>
       <use xlink:href="#DejaVuSans-30" x="127.246094"/>
      </g>
     </g>
    </g>
    <g id="text_25">
     <!-- Time (ns) -->
     <g transform="translate(756.381906 307.56239) scale(0.11 -0.11)">
      <use xlink:href="#DejaVuSans-54"/>
      <use xlink:href="#DejaVuSans-69" x="57.958984"/>
      <use xlink:href="#DejaVuSans-6d" x="85.742188"/>
      <use xlink:href="#DejaVuSans-65" x="183.154297"/>
      <use xlink:href="#DejaVuSans-20" x="244.677734"/>
      <use xlink:href="#DejaVuSans-28" x="276.464844"/>
      <use xlink:href="#DejaVuSans-6e" x="315.478516"/>
      <use xlink:href="#DejaVuSans-73" x="378.857422"/>
      <use xlink:href="#DejaVuSans-29" x="430.957031"/>
     </g>
    </g>
   </g>
   <g id="matplotlib.axis_4">
    <g id="ytick_7">
     <g id="line2d_43">
      <path d="M 553.819135 266.929535 
L 1010.63952 266.929535 
" clip-path="url(#pbf8ae571dc)" style="fill: none; stroke: #b0b0b0; stroke-opacity: 0.18; stroke-width: 0.8; stroke-linecap: square"/>
     </g>
     <g id="line2d_44">
      <g>
       <use xlink:href="#mb3074820a2" x="553.819135" y="266.929535" style="stroke: #000000; stroke-width: 0.8"/>
      </g>
     </g>
     <g id="text_26">
      <!-- 0.0 -->
      <g transform="translate(529.325697 271.108675) scale(0.11 -0.11)">
       <use xlink:href="#DejaVuSans-30"/>
       <use xlink:href="#DejaVuSans-2e" x="63.623047"/>
       <use xlink:href="#DejaVuSans-30" x="95.410156"/>
      </g>
     </g>
    </g>
    <g id="ytick_8">
     <g id="line2d_45">
      <path d="M 553.819135 224.404026 
L 1010.63952 224.404026 
" clip-path="url(#pbf8ae571dc)" style="fill: none; stroke: #b0b0b0; stroke-opacity: 0.18; stroke-width: 0.8; stroke-linecap: square"/>
     </g>
     <g id="line2d_46">
      <g>
       <use xlink:href="#mb3074820a2" x="553.819135" y="224.404026" style="stroke: #000000; stroke-width: 0.8"/>
      </g>
     </g>
     <g id="text_27">
      <!-- 0.2 -->
      <g transform="translate(529.325697 228.583167) scale(0.11 -0.11)">
       <use xlink:href="#DejaVuSans-30"/>
       <use xlink:href="#DejaVuSans-2e" x="63.623047"/>
       <use xlink:href="#DejaVuSans-32" x="95.410156"/>
      </g>
     </g>
    </g>
    <g id="ytick_9">
     <g id="line2d_47">
      <path d="M 553.819135 181.878517 
L 1010.63952 181.878517 
" clip-path="url(#pbf8ae571dc)" style="fill: none; stroke: #b0b0b0; stroke-opacity: 0.18; stroke-width: 0.8; stroke-linecap: square"/>
     </g>
     <g id="line2d_48">
      <g>
       <use xlink:href="#mb3074820a2" x="553.819135" y="181.878517" style="stroke: #000000; stroke-width: 0.8"/>
      </g>
     </g>
     <g id="text_28">
      <!-- 0.4 -->
      <g transform="translate(529.325697 186.057658) scale(0.11 -0.11)">
       <use xlink:href="#DejaVuSans-30"/>
       <use xlink:href="#DejaVuSans-2e" x="63.623047"/>
       <use xlink:href="#DejaVuSans-34" x="95.410156"/>
      </g>
     </g>
    </g>
    <g id="ytick_10">
     <g id="line2d_49">
      <path d="M 553.819135 139.353009 
L 1010.63952 139.353009 
" clip-path="url(#pbf8ae571dc)" style="fill: none; stroke: #b0b0b0; stroke-opacity: 0.18; stroke-width: 0.8; stroke-linecap: square"/>
     </g>
     <g id="line2d_50">
      <g>
       <use xlink:href="#mb3074820a2" x="553.819135" y="139.353009" style="stroke: #000000; stroke-width: 0.8"/>
      </g>
     </g>
     <g id="text_29">
      <!-- 0.6 -->
      <g transform="translate(529.325697 143.532149) scale(0.11 -0.11)">
       <use xlink:href="#DejaVuSans-30"/>
       <use xlink:href="#DejaVuSans-2e" x="63.623047"/>
       <use xlink:href="#DejaVuSans-36" x="95.410156"/>
      </g>
     </g>
    </g>
    <g id="ytick_11">
     <g id="line2d_51">
      <path d="M 553.819135 96.8275 
L 1010.63952 96.8275 
" clip-path="url(#pbf8ae571dc)" style="fill: none; stroke: #b0b0b0; stroke-opacity: 0.18; stroke-width: 0.8; stroke-linecap: square"/>
     </g>
     <g id="line2d_52">
      <g>
       <use xlink:href="#mb3074820a2" x="553.819135" y="96.8275" style="stroke: #000000; stroke-width: 0.8"/>
      </g>
     </g>
     <g id="text_30">
      <!-- 0.8 -->
      <g transform="translate(529.325697 101.006641) scale(0.11 -0.11)">
       <use xlink:href="#DejaVuSans-30"/>
       <use xlink:href="#DejaVuSans-2e" x="63.623047"/>
       <use xlink:href="#DejaVuSans-38" x="95.410156"/>
      </g>
     </g>
    </g>
    <g id="ytick_12">
     <g id="line2d_53">
      <path d="M 553.819135 54.301992 
L 1010.63952 54.301992 
" clip-path="url(#pbf8ae571dc)" style="fill: none; stroke: #b0b0b0; stroke-opacity: 0.18; stroke-width: 0.8; stroke-linecap: square"/>
     </g>
     <g id="line2d_54">
      <g>
       <use xlink:href="#mb3074820a2" x="553.819135" y="54.301992" style="stroke: #000000; stroke-width: 0.8"/>
      </g>
     </g>
     <g id="text_31">
      <!-- 1.0 -->
      <g transform="translate(529.325697 58.481132) scale(0.11 -0.11)">
       <use xlink:href="#DejaVuSans-31"/>
       <use xlink:href="#DejaVuSans-2e" x="63.623047"/>
       <use xlink:href="#DejaVuSans-30" x="95.410156"/>
      </g>
     </g>
    </g>
    <g id="text_32">
     <!-- Readout induced charge fraction -->
     <g transform="translate(523.038041 250.653247) rotate(-90) scale(0.11 -0.11)">
      <use xlink:href="#DejaVuSans-52"/>
      <use xlink:href="#DejaVuSans-65" x="64.982422"/>
      <use xlink:href="#DejaVuSans-61" x="126.505859"/>
      <use xlink:href="#DejaVuSans-64" x="187.785156"/>
      <use xlink:href="#DejaVuSans-6f" x="251.261719"/>
      <use xlink:href="#DejaVuSans-75" x="312.443359"/>
      <use xlink:href="#DejaVuSans-74" x="375.822266"/>
      <use xlink:href="#DejaVuSans-20" x="415.03125"/>
      <use xlink:href="#DejaVuSans-69" x="446.818359"/>
      <use xlink:href="#DejaVuSans-6e" x="474.601562"/>
      <use xlink:href="#DejaVuSans-64" x="537.980469"/>
      <use xlink:href="#DejaVuSans-75" x="601.457031"/>
      <use xlink:href="#DejaVuSans-63" x="664.835938"/>
      <use xlink:href="#DejaVuSans-65" x="719.816406"/>
      <use xlink:href="#DejaVuSans-64" x="781.339844"/>
      <use xlink:href="#DejaVuSans-20" x="844.816406"/>
      <use xlink:href="#DejaVuSans-63" x="876.603516"/>
      <use xlink:href="#DejaVuSans-68" x="931.583984"/>
      <use xlink:href="#DejaVuSans-61" x="994.962891"/>
      <use xlink:href="#DejaVuSans-72" x="1056.242188"/>
      <use xlink:href="#DejaVuSans-67" x="1095.605469"/>
      <use xlink:href="#DejaVuSans-65" x="1159.082031"/>
      <use xlink:href="#DejaVuSans-20" x="1220.605469"/>
      <use xlink:href="#DejaVuSans-66" x="1252.392578"/>
      <use xlink:href="#DejaVuSans-72" x="1287.597656"/>
      <use xlink:href="#DejaVuSans-61" x="1328.710938"/>
      <use xlink:href="#DejaVuSans-63" x="1389.990234"/>
      <use xlink:href="#DejaVuSans-74" x="1444.970703"/>
      <use xlink:href="#DejaVuSans-69" x="1484.179688"/>
      <use xlink:href="#DejaVuSans-6f" x="1511.962891"/>
      <use xlink:href="#DejaVuSans-6e" x="1573.144531"/>
     </g>
    </g>
   </g>
   <g id="line2d_55">
    <path d="M 553.819135 266.929535 
L 645.061555 266.246503 
L 670.913575 265.777029 
L 692.203473 265.158368 
L 709.945054 264.456262 
L 724.13832 263.669954 
L 733.769464 262.944471 
L 742.386804 262.100137 
L 749.483437 261.170113 
L 754.045558 260.409027 
L 758.607679 259.427629 
L 762.155995 258.393832 
L 764.183604 257.561015 
L 765.197409 256.965231 
L 766.211214 256.063969 
L 769.252628 253.70086 
L 770.266432 252.602416 
L 772.294042 250.865267 
L 774.828553 248.990673 
L 777.869967 247.019946 
L 781.418284 244.993693 
L 784.9666 243.229264 
L 788.514916 241.707243 
L 792.570135 240.202791 
L 799.159866 237.8428 
L 801.187475 236.894387 
L 802.20128 236.238386 
L 803.721987 235.002152 
L 806.763401 232.928247 
L 811.325522 229.886723 
L 814.873838 227.317213 
L 817.915252 224.816679 
L 819.942861 222.921324 
L 821.970471 220.767541 
L 823.99808 218.255792 
L 825.518787 216.036321 
L 827.039494 213.4304 
L 828.560201 210.275443 
L 829.574006 207.761321 
L 830.58781 204.797296 
L 831.601615 201.226737 
L 832.61542 196.801082 
L 833.629224 191.071173 
L 834.643029 183.117681 
L 835.149931 177.737696 
L 836.670638 158.418112 
L 838.191345 156.139751 
L 839.20515 154.307613 
L 840.218955 152.124439 
L 841.232759 149.482839 
L 842.246564 146.185803 
L 843.260369 141.924953 
L 844.274173 136.058527 
L 844.781076 132.115573 
L 845.287978 127.001916 
L 846.301783 112.342277 
L 846.808685 110.743288 
L 850.357001 109.799343 
L 852.891513 108.936175 
L 854.919122 108.086358 
L 856.946732 107.04897 
L 858.974341 105.756978 
L 860.495048 104.563613 
L 862.015755 103.121543 
L 863.536462 101.338258 
L 865.057169 99.087245 
L 866.070974 97.221683 
L 867.084779 94.954928 
L 868.098583 92.143577 
L 869.112388 88.537467 
L 870.126193 83.71035 
L 870.633095 80.592905 
L 871.139997 76.771093 
L 871.6469 71.957287 
L 873.167607 54.359941 
L 937.037301 54.359941 
L 937.037301 54.359941 
" clip-path="url(#pbf8ae571dc)" style="fill: none; stroke: #1f77b4; stroke-width: 1.5; stroke-linecap: square"/>
   </g>
   <g id="line2d_56">
    <path d="M 553.819135 266.929535 
L 604.002466 266.635799 
L 630.361388 266.379216 
L 667.365258 265.76178 
L 691.69657 265.060556 
L 709.438152 264.349265 
L 723.631417 263.553014 
L 732.248757 262.907869 
L 741.372999 262.025577 
L 747.455827 261.262498 
L 753.538655 260.287371 
L 757.593874 259.458214 
L 761.14219 258.525782 
L 763.676702 257.663167 
L 765.197409 256.957599 
L 768.745725 254.528587 
L 769.252628 254.025589 
L 770.266432 252.604026 
L 771.787139 250.989003 
L 774.321651 248.721967 
L 776.856163 246.755303 
L 779.897577 244.659993 
L 783.445893 242.520384 
L 786.994209 240.672918 
L 790.542526 239.109903 
L 794.597744 237.593713 
L 800.680573 235.352355 
L 802.20128 234.571577 
L 804.228889 233.239566 
L 808.79101 230.670073 
L 813.353131 227.983975 
L 816.901447 225.593811 
L 819.942861 223.214466 
L 821.970471 221.392037 
L 823.99808 219.308201 
L 826.025689 216.8465 
L 827.546396 214.66237 
L 829.067103 212.083124 
L 830.58781 208.958274 
L 831.601615 206.444182 
L 832.61542 203.454319 
L 833.629224 199.761721 
L 834.643029 194.929389 
L 835.149931 191.822408 
L 836.670638 180.790576 
L 838.191345 176.86898 
L 839.20515 173.696086 
L 840.218955 169.913139 
L 841.232759 165.308545 
L 842.246564 159.535198 
L 843.260369 152.045152 
L 844.274173 141.669534 
L 844.781076 134.67425 
L 845.287978 125.577951 
L 846.301783 99.410964 
L 846.808685 96.644977 
L 850.863904 95.821791 
L 853.905318 94.987882 
L 856.439829 94.083026 
L 858.467439 93.165723 
L 860.495048 92.010154 
L 862.015755 90.928569 
L 863.536462 89.591096 
L 865.057169 87.902792 
L 866.070974 86.503606 
L 867.084779 84.80352 
L 868.098583 82.694987 
L 869.112388 79.990341 
L 870.126193 76.369959 
L 870.633095 74.031846 
L 871.139997 71.165448 
L 871.6469 67.555024 
L 873.167607 54.356804 
L 937.037301 54.356804 
L 937.037301 54.356804 
" clip-path="url(#pbf8ae571dc)" style="fill: none; stroke: #ff7f0e; stroke-width: 1.5; stroke-linecap: square"/>
   </g>
   <g id="line2d_57">
    <path d="M 553.819135 266.929535 
L 618.195732 266.636637 
L 651.144383 266.32391 
L 686.120645 265.754882 
L 708.424347 265.208347 
L 726.672831 264.551722 
L 742.386804 263.724186 
L 754.045558 262.841985 
L 762.662897 261.932309 
L 769.252628 260.984929 
L 773.814749 260.092299 
L 777.363065 259.145576 
L 779.390674 258.359169 
L 780.404479 257.79128 
L 781.418284 256.941151 
L 782.938991 255.670198 
L 784.9666 254.257468 
L 788.008014 252.438294 
L 791.55633 250.557167 
L 797.132256 247.911421 
L 801.187475 245.971734 
L 806.763401 242.783857 
L 809.804815 241.464057 
L 813.860033 239.954417 
L 820.449764 237.689909 
L 827.546396 235.166851 
L 830.58781 233.919288 
L 833.629224 232.499192 
L 836.670638 230.775652 
L 838.698248 229.42613 
L 840.725857 227.861519 
L 842.753466 225.997971 
L 844.781076 223.762609 
L 846.301783 221.774704 
L 847.82249 219.430401 
L 849.343197 216.637557 
L 850.863904 213.21786 
L 851.877708 210.474789 
L 852.891513 207.24253 
L 853.905318 203.360534 
L 854.919122 198.549972 
L 855.932927 192.394066 
L 856.946732 184.050492 
L 857.453634 178.511882 
L 857.960536 171.529977 
L 858.467439 162.017468 
L 858.974341 150.250448 
L 859.481243 143.927428 
L 861.00195 142.803617 
L 866.577876 138.442082 
L 868.605486 136.50823 
L 870.126193 134.808909 
L 871.6469 132.784359 
L 873.167607 130.286788 
L 874.181411 128.225521 
L 875.195216 125.690595 
L 876.209021 122.450861 
L 877.222825 118.00347 
L 877.729728 115.029535 
L 878.23663 111.154685 
L 879.250435 100.068751 
L 879.757337 99.183598 
L 885.333263 98.579387 
L 892.936798 97.981999 
L 901.554137 97.192571 
L 906.623161 96.480598 
L 910.678379 95.690484 
L 914.733598 94.594079 
L 917.26811 93.682696 
L 919.295719 92.772901 
L 921.323328 91.641366 
L 922.844035 90.599107 
L 924.364742 89.329718 
L 925.885449 87.750921 
L 926.899254 86.46332 
L 927.913059 84.922398 
L 928.926863 83.042309 
L 929.940668 80.676986 
L 930.954473 77.596259 
L 931.968277 73.341907 
L 932.47518 70.472824 
L 932.982082 66.797649 
L 933.995887 56.190529 
L 934.502789 54.362881 
L 1010.63952 54.362881 
L 1010.63952 54.362881 
" clip-path="url(#pbf8ae571dc)" style="fill: none; stroke: #2ca02c; stroke-width: 1.5; stroke-linecap: square"/>
   </g>
   <g id="patch_6">
    <path d="M 553.819135 277.558171 
L 553.819135 43.728168 
" style="fill: none; stroke: #000000; stroke-width: 0.8; stroke-linejoin: miter; stroke-linecap: square"/>
   </g>
   <g id="patch_7">
    <path d="M 553.819135 277.558171 
L 1010.63952 277.558171 
" style="fill: none; stroke: #000000; stroke-width: 0.8; stroke-linejoin: miter; stroke-linecap: square"/>
   </g>
   <g id="text_33">
    <!-- 3-site pulse detail | total 662 keV -->
    <g transform="translate(672.816796 37.728168) scale(0.132 -0.132)">
     <use xlink:href="#DejaVuSans-33"/>
     <use xlink:href="#DejaVuSans-2d" x="63.623047"/>
     <use xlink:href="#DejaVuSans-73" x="99.707031"/>
     <use xlink:href="#DejaVuSans-69" x="151.806641"/>
     <use xlink:href="#DejaVuSans-74" x="179.589844"/>
     <use xlink:href="#DejaVuSans-65" x="218.798828"/>
     <use xlink:href="#DejaVuSans-20" x="280.322266"/>
     <use xlink:href="#DejaVuSans-70" x="312.109375"/>
     <use xlink:href="#DejaVuSans-75" x="375.585938"/>
     <use xlink:href="#DejaVuSans-6c" x="438.964844"/>
     <use xlink:href="#DejaVuSans-73" x="466.748047"/>
     <use xlink:href="#DejaVuSans-65" x="518.847656"/>
     <use xlink:href="#DejaVuSans-20" x="580.371094"/>
     <use xlink:href="#DejaVuSans-64" x="612.158203"/>
     <use xlink:href="#DejaVuSans-65" x="675.634766"/>
     <use xlink:href="#DejaVuSans-74" x="737.158203"/>
     <use xlink:href="#DejaVuSans-61" x="776.367188"/>
     <use xlink:href="#DejaVuSans-69" x="837.646484"/>
     <use xlink:href="#DejaVuSans-6c" x="865.429688"/>
     <use xlink:href="#DejaVuSans-20" x="893.212891"/>
     <use xlink:href="#DejaVuSans-7c" x="925"/>
     <use xlink:href="#DejaVuSans-20" x="958.691406"/>
     <use xlink:href="#DejaVuSans-74" x="990.478516"/>
     <use xlink:href="#DejaVuSans-6f" x="1029.6875"/>
     <use xlink:href="#DejaVuSans-74" x="1090.869141"/>
     <use xlink:href="#DejaVuSans-61" x="1130.078125"/>
     <use xlink:href="#DejaVuSans-6c" x="1191.357422"/>
     <use xlink:href="#DejaVuSans-20" x="1219.140625"/>
     <use xlink:href="#DejaVuSans-36" x="1250.927734"/>
     <use xlink:href="#DejaVuSans-36" x="1314.550781"/>
     <use xlink:href="#DejaVuSans-32" x="1378.173828"/>
     <use xlink:href="#DejaVuSans-20" x="1441.796875"/>
     <use xlink:href="#DejaVuSans-6b" x="1473.583984"/>
     <use xlink:href="#DejaVuSans-65" x="1527.869141"/>
     <use xlink:href="#DejaVuSans-56" x="1589.392578"/>
    </g>
   </g>
   <g id="legend_2">
    <g id="line2d_58">
     <path d="M 636.530577 340.789366 
L 645.530577 340.789366 
L 654.530577 340.789366 
" style="fill: none; stroke: #1f77b4; stroke-width: 1.5; stroke-linecap: square"/>
    </g>
    <g id="text_34">
     <!-- three spread -->
     <g transform="translate(661.730577 343.939366) scale(0.09 -0.09)">
      <use xlink:href="#DejaVuSans-74"/>
      <use xlink:href="#DejaVuSans-68" x="39.208984"/>
      <use xlink:href="#DejaVuSans-72" x="102.587891"/>
      <use xlink:href="#DejaVuSans-65" x="141.451172"/>
      <use xlink:href="#DejaVuSans-65" x="202.974609"/>
      <use xlink:href="#DejaVuSans-20" x="264.498047"/>
      <use xlink:href="#DejaVuSans-73" x="296.285156"/>
      <use xlink:href="#DejaVuSans-70" x="348.384766"/>
      <use xlink:href="#DejaVuSans-72" x="411.861328"/>
      <use xlink:href="#DejaVuSans-65" x="450.724609"/>
      <use xlink:href="#DejaVuSans-61" x="512.248047"/>
      <use xlink:href="#DejaVuSans-64" x="573.527344"/>
     </g>
    </g>
    <g id="line2d_59">
     <path d="M 737.061984 340.789366 
L 746.061984 340.789366 
L 755.061984 340.789366 
" style="fill: none; stroke: #ff7f0e; stroke-width: 1.5; stroke-linecap: square"/>
    </g>
    <g id="text_35">
     <!-- three dominant -->
     <g transform="translate(762.261984 343.939366) scale(0.09 -0.09)">
      <use xlink:href="#DejaVuSans-74"/>
      <use xlink:href="#DejaVuSans-68" x="39.208984"/>
      <use xlink:href="#DejaVuSans-72" x="102.587891"/>
      <use xlink:href="#DejaVuSans-65" x="141.451172"/>
      <use xlink:href="#DejaVuSans-65" x="202.974609"/>
      <use xlink:href="#DejaVuSans-20" x="264.498047"/>
      <use xlink:href="#DejaVuSans-64" x="296.285156"/>
      <use xlink:href="#DejaVuSans-6f" x="359.761719"/>
      <use xlink:href="#DejaVuSans-6d" x="420.943359"/>
      <use xlink:href="#DejaVuSans-69" x="518.355469"/>
      <use xlink:href="#DejaVuSans-6e" x="546.138672"/>
      <use xlink:href="#DejaVuSans-61" x="609.517578"/>
      <use xlink:href="#DejaVuSans-6e" x="670.796875"/>
      <use xlink:href="#DejaVuSans-74" x="734.175781"/>
     </g>
    </g>
    <g id="line2d_60">
     <path d="M 849.865734 340.789366 
L 858.865734 340.789366 
L 867.865734 340.789366 
" style="fill: none; stroke: #2ca02c; stroke-width: 1.5; stroke-linecap: square"/>
    </g>
    <g id="text_36">
     <!-- three depth -->
     <g transform="translate(875.065734 343.939366) scale(0.09 -0.09)">
      <use xlink:href="#DejaVuSans-74"/>
      <use xlink:href="#DejaVuSans-68" x="39.208984"/>
      <use xlink:href="#DejaVuSans-72" x="102.587891"/>
      <use xlink:href="#DejaVuSans-65" x="141.451172"/>
      <use xlink:href="#DejaVuSans-65" x="202.974609"/>
      <use xlink:href="#DejaVuSans-20" x="264.498047"/>
      <use xlink:href="#DejaVuSans-64" x="296.285156"/>
      <use xlink:href="#DejaVuSans-65" x="359.761719"/>
      <use xlink:href="#DejaVuSans-70" x="421.285156"/>
      <use xlink:href="#DejaVuSans-74" x="484.761719"/>
      <use xlink:href="#DejaVuSans-68" x="523.970703"/>
     </g>
    </g>
   </g>
  </g>
  <g id="text_37">
   <!-- Position and energy sharing | full histories retained in the event scenes -->
   <g transform="translate(277.933041 18.574844) scale(0.13 -0.13)">
    <defs>
     <path id="DejaVuSans-50" d="M 1259 4147 
L 1259 2394 
L 2053 2394 
Q 2494 2394 2734 2622 
Q 2975 2850 2975 3272 
Q 2975 3691 2734 3919 
Q 2494 4147 2053 4147 
L 1259 4147 
z
M 628 4666 
L 2053 4666 
Q 2838 4666 3239 4311 
Q 3641 3956 3641 3272 
Q 3641 2581 3239 2228 
Q 2838 1875 2053 1875 
L 1259 1875 
L 1259 0 
L 628 0 
L 628 4666 
z
" transform="scale(0.015625)"/>
     <path id="DejaVuSans-76" d="M 191 3500 
L 800 3500 
L 1894 563 
L 2988 3500 
L 3597 3500 
L 2284 0 
L 1503 0 
L 191 3500 
z
" transform="scale(0.015625)"/>
    </defs>
    <use xlink:href="#DejaVuSans-50"/>
    <use xlink:href="#DejaVuSans-6f" x="56.677734"/>
    <use xlink:href="#DejaVuSans-73" x="117.859375"/>
    <use xlink:href="#DejaVuSans-69" x="169.958984"/>
    <use xlink:href="#DejaVuSans-74" x="197.742188"/>
    <use xlink:href="#DejaVuSans-69" x="236.951172"/>
    <use xlink:href="#DejaVuSans-6f" x="264.734375"/>
    <use xlink:href="#DejaVuSans-6e" x="325.916016"/>
    <use xlink:href="#DejaVuSans-20" x="389.294922"/>
    <use xlink:href="#DejaVuSans-61" x="421.082031"/>
    <use xlink:href="#DejaVuSans-6e" x="482.361328"/>
    <use xlink:href="#DejaVuSans-64" x="545.740234"/>
    <use xlink:href="#DejaVuSans-20" x="609.216797"/>
    <use xlink:href="#DejaVuSans-65" x="641.003906"/>
    <use xlink:href="#DejaVuSans-6e" x="702.527344"/>
    <use xlink:href="#DejaVuSans-65" x="765.90625"/>
    <use xlink:href="#DejaVuSans-72" x="827.429688"/>
    <use xlink:href="#DejaVuSans-67" x="866.792969"/>
    <use xlink:href="#DejaVuSans-79" x="930.269531"/>
    <use xlink:href="#DejaVuSans-20" x="989.449219"/>
    <use xlink:href="#DejaVuSans-73" x="1021.236328"/>
    <use xlink:href="#DejaVuSans-68" x="1073.335938"/>
    <use xlink:href="#DejaVuSans-61" x="1136.714844"/>
    <use xlink:href="#DejaVuSans-72" x="1197.994141"/>
    <use xlink:href="#DejaVuSans-69" x="1239.107422"/>
    <use xlink:href="#DejaVuSans-6e" x="1266.890625"/>
    <use xlink:href="#DejaVuSans-67" x="1330.269531"/>
    <use xlink:href="#DejaVuSans-20" x="1393.746094"/>
    <use xlink:href="#DejaVuSans-7c" x="1425.533203"/>
    <use xlink:href="#DejaVuSans-20" x="1459.224609"/>
    <use xlink:href="#DejaVuSans-66" x="1491.011719"/>
    <use xlink:href="#DejaVuSans-75" x="1526.216797"/>
    <use xlink:href="#DejaVuSans-6c" x="1589.595703"/>
    <use xlink:href="#DejaVuSans-6c" x="1617.378906"/>
    <use xlink:href="#DejaVuSans-20" x="1645.162109"/>
    <use xlink:href="#DejaVuSans-68" x="1676.949219"/>
    <use xlink:href="#DejaVuSans-69" x="1740.328125"/>
    <use xlink:href="#DejaVuSans-73" x="1768.111328"/>
    <use xlink:href="#DejaVuSans-74" x="1820.210938"/>
    <use xlink:href="#DejaVuSans-6f" x="1859.419922"/>
    <use xlink:href="#DejaVuSans-72" x="1920.601562"/>
    <use xlink:href="#DejaVuSans-69" x="1961.714844"/>
    <use xlink:href="#DejaVuSans-65" x="1989.498047"/>
    <use xlink:href="#DejaVuSans-73" x="2051.021484"/>
    <use xlink:href="#DejaVuSans-20" x="2103.121094"/>
    <use xlink:href="#DejaVuSans-72" x="2134.908203"/>
    <use xlink:href="#DejaVuSans-65" x="2173.771484"/>
    <use xlink:href="#DejaVuSans-74" x="2235.294922"/>
    <use xlink:href="#DejaVuSans-61" x="2274.503906"/>
    <use xlink:href="#DejaVuSans-69" x="2335.783203"/>
    <use xlink:href="#DejaVuSans-6e" x="2363.566406"/>
    <use xlink:href="#DejaVuSans-65" x="2426.945312"/>
    <use xlink:href="#DejaVuSans-64" x="2488.46875"/>
    <use xlink:href="#DejaVuSans-20" x="2551.945312"/>
    <use xlink:href="#DejaVuSans-69" x="2583.732422"/>
    <use xlink:href="#DejaVuSans-6e" x="2611.515625"/>
    <use xlink:href="#DejaVuSans-20" x="2674.894531"/>
    <use xlink:href="#DejaVuSans-74" x="2706.681641"/>
    <use xlink:href="#DejaVuSans-68" x="2745.890625"/>
    <use xlink:href="#DejaVuSans-65" x="2809.269531"/>
    <use xlink:href="#DejaVuSans-20" x="2870.792969"/>
    <use xlink:href="#DejaVuSans-65" x="2902.580078"/>
    <use xlink:href="#DejaVuSans-76" x="2964.103516"/>
    <use xlink:href="#DejaVuSans-65" x="3023.283203"/>
    <use xlink:href="#DejaVuSans-6e" x="3084.806641"/>
    <use xlink:href="#DejaVuSans-74" x="3148.185547"/>
    <use xlink:href="#DejaVuSans-20" x="3187.394531"/>
    <use xlink:href="#DejaVuSans-73" x="3219.181641"/>
    <use xlink:href="#DejaVuSans-63" x="3271.28125"/>
    <use xlink:href="#DejaVuSans-65" x="3326.261719"/>
    <use xlink:href="#DejaVuSans-6e" x="3387.785156"/>
    <use xlink:href="#DejaVuSans-65" x="3451.164062"/>
    <use xlink:href="#DejaVuSans-73" x="3512.6875"/>
   </g>
  </g>
 </g>
 <defs>
  <clipPath id="p4a8349e14d">
   <rect x="47.779375" y="43.728168" width="456.820385" height="233.830004"/>
  </clipPath>
  <clipPath id="pbf8ae571dc">
   <rect x="553.819135" y="43.728168" width="456.820385" height="233.830004"/>
  </clipPath>
 </defs>
</svg>
